# xmcd
#
# Track frame offsets: 
#        150
#        12872
#        27676
#        49069
#        74774
#        89220
#        106519
#        123636
#        145520
#        172327
#        200797
#        214354
#        244567
#
# Disc length: 4070 seconds
#
# Revision: 0
# Processed by: cddbd v1.5.2PL0 Copyright (c) Steve Scherf et al.
# Submitted via: ExactAudioCopy v0.99pb5
#
DISCID=cb0fe40d
DTITLE=Konvehdinmussuttajat - Älä Mussuta!
DYEAR=2007
DGENRE=Hip-Hop
TTITLE0=Jäykkä
TTITLE1=Mussuta konvehti
TTITLE2=Älä lyö naamaan
TTITLE3=Katumuss
TTITLE4=Menetetyt konvehdit
TTITLE5=A.S.T.E.
TTITLE6=Pudistava jogurtti (deep in there)
TTITLE7=Mozartin kuulat
TTITLE8=Idän yhdistetty
TTITLE9=Reilun kaupan konvehdit
TTITLE10=Yhen imun ilta
TTITLE11=Pintahiki mayhem
TTITLE12=MP3-files
EXTD=
EXTT0=
EXTT1=
EXTT2=
EXTT3=
EXTT4=
EXTT5=
EXTT6=
EXTT7=
EXTT8=
EXTT9=
EXTT10=
EXTT11=
EXTT12=
PLAYORDER=
